<svg
   width="210mm"
   height="297mm"
   viewBox="0 0 210 297"
>
  <defs
     id="defs2">
    <rect
       x="17.961574"
       y="44.879021"
       width="71.782218"
       height="13.660363"
       id="rect835" />
  </defs>
  <sodipodi:namedview
     id="base"
     pagecolor="#ffffff"
     bordercolor="#666666"
     borderopacity="1.0"
     inkscape:pageopacity="0.0"
     inkscape:pageshadow="2"
     inkscape:zoom="5.6079868"
     inkscape:cx="92.691551"
     inkscape:cy="47.787825"
     inkscape:document-units="mm"
     inkscape:current-layer="g1041"
     inkscape:document-rotation="0"
     showgrid="false"
     inkscape:window-width="1920"
     inkscape:window-height="1027"
     inkscape:window-x="0"
     inkscape:window-y="0"
     inkscape:window-maximized="1" />
  <metadata
     id="metadata5">
    <rdf:RDF>
      <cc:Work
         rdf:about="">
        <dc:format>image/svg+xml</dc:format>
        <dc:type
           rdf:resource="http://purl.org/dc/dcmitype/StillImage" />
        <dc:title></dc:title>
      </cc:Work>
    </rdf:RDF>
  </metadata>
  <g
     inkscape:label="Layer 1"
     inkscape:groupmode="layer"
     id="layer1">
    <g
       aria-label="Hnrxnz"
       id="text833"
       style="font-style:normal;font-variant:normal;font-weight:900;font-stretch:normal;font-size:10.5833px;line-height:1.25;font-family:Inter;-inkscape-font-specification:'Inter, Heavy';font-variant-ligatures:normal;font-variant-caps:normal;font-variant-numeric:normal;font-variant-east-asian:normal;white-space:pre;shape-inside:url(#rect835);fill:#000000;fill-opacity:0;stroke:#000000;stroke-width:0.264583;stroke-miterlimit:4;stroke-dasharray:none;stroke-opacity:1"
       transform="translate(-0.36500556,-3.8330142)">
      <g
         id="g1041">
        <g
           id="g964"
           style="opacity:1"
           transform="translate(-17.959213,-43.010736)" />
        <g
           id="g970"
           style="opacity:1"
           transform="translate(-18.982676,-43.010736)" />
        <g
           id="g976"
           style="opacity:1"
           transform="translate(-20.006613,-43.010736)" />
        <g
           id="g982"
           style="opacity:1"
           transform="translate(-20.581756,-43.010736)" />
        <g
           id="g988"
           style="opacity:1"
           transform="translate(-21.320551,-43.010736)" />
        <g
           id="g994"
           style="opacity:1"
           transform="translate(-22.401571,-43.010736)">
          <path
             id="path998"
             style="color:#000000;font-style:normal;font-variant:normal;font-weight:900;font-stretch:normal;font-size:10.5833px;line-height:1.25;font-family:Inter;-inkscape-font-specification:'Inter, Heavy';font-variant-ligatures:normal;font-variant-position:normal;font-variant-caps:normal;font-variant-numeric:normal;font-variant-alternates:normal;font-variant-east-asian:normal;font-feature-settings:normal;font-variation-settings:normal;text-indent:0;text-align:start;text-decoration:none;text-decoration-line:none;text-decoration-style:solid;text-decoration-color:#000000;letter-spacing:normal;word-spacing:normal;text-transform:none;writing-mode:lr-tb;direction:ltr;text-orientation:mixed;dominant-baseline:auto;baseline-shift:baseline;text-anchor:start;white-space:normal;shape-padding:0;shape-margin:0;inline-size:0;clip-rule:nonzero;display:inline;overflow:visible;visibility:visible;isolation:auto;mix-blend-mode:normal;color-interpolation:sRGB;color-interpolation-filters:linearRGB;solid-color:#000000;solid-opacity:1;vector-effect:none;fill:none;fill-opacity:1;fill-rule:nonzero;stroke:#000000;stroke-width:0.999999;stroke-linecap:butt;stroke-linejoin:miter;stroke-miterlimit:4;stroke-dasharray:none;stroke-dashoffset:0;stroke-opacity:1;color-rendering:auto;image-rendering:auto;shape-rendering:auto;text-rendering:auto;enable-background:accumulate;stop-color:#000000;stop-opacity:1"
             d="M 0 0 L 0 30.095703 L 0.50195312 30.095703 L 8.9023438 30.095703 L 8.9023438 18.728516 L 18.351562 18.728516 L 18.351562 30.095703 L 26.25 30.095703 L 27.253906 30.095703 L 35.085938 30.095703 L 35.085938 17.326172 C 35.092363 16.340241 35.374179 15.604977 35.824219 15.117188 C 36.274247 14.629398 36.912352 14.349609 37.773438 14.349609 C 38.650337 14.349609 39.27228 14.627617 39.707031 15.111328 C 40.141779 15.595021 40.40104 16.329389 40.394531 17.318359 L 40.394531 30.095703 L 48.230469 30.095703 L 49.236328 30.095703 L 57.068359 30.095703 L 57.068359 18.226562 C 57.068359 15.955735 58.525403 14.580078 60.603516 14.580078 C 61.360547 14.580078 62.677156 14.719575 63.341797 14.949219 L 63.998047 15.177734 L 63.998047 9.8046875 L 68.712891 18.675781 L 62.230469 30.095703 L 71.236328 30.095703 L 74.521484 23.740234 L 77.902344 30.095703 L 85.134766 30.095703 L 86.783203 30.095703 L 93.978516 30.095703 L 93.978516 17.326172 C 93.984941 16.340241 94.258956 15.604977 94.708984 15.117188 C 95.159009 14.629398 95.797117 14.349609 96.658203 14.349609 C 97.535103 14.349609 98.164858 14.627617 98.599609 15.111328 C 99.034357 15.595021 99.293614 16.329389 99.287109 17.318359 L 99.287109 30.095703 L 107.12891 30.095703 L 108.13086 30.095703 L 127.2832 30.095703 L 127.2832 23.126953 L 118.68945 23.126953 L 126.93555 12.71875 L 126.93555 7.2714844 L 107.46875 7.2714844 L 107.46875 11.986328 C 107.09898 11.036304 106.58522 10.18072 105.92969 9.4628906 C 104.50862 7.9067835 102.44882 6.9902344 100.00977 6.9902344 C 97.09352 6.9902344 94.858405 8.5291791 93.580078 10.792969 L 93.580078 7.2714844 L 86.480469 7.2714844 L 85.134766 7.2714844 L 77.548828 7.2714844 L 74.521484 13.382812 L 71.642578 7.2714844 L 71.326172 7.2714844 L 63.478516 7.2714844 C 62.856434 7.1018189 62.190174 6.9902344 61.511719 6.9902344 C 60.249391 6.9902344 59.078417 7.3741946 58.138672 8.1796875 C 57.547765 8.686182 57.235762 9.6291464 56.845703 10.453125 L 56.845703 7.2714844 L 48.230469 7.2714844 L 48.230469 11.212891 C 47.904367 10.571231 47.509075 9.979708 47.037109 9.4628906 C 45.616045 7.9067835 43.564054 6.9902344 41.125 6.9902344 C 38.206037 6.9902344 35.964806 8.5312212 34.6875 10.798828 L 34.6875 7.2714844 L 27.246094 7.2714844 L 27.253906 0 L 18.351562 0 L 18.351562 11.367188 L 8.9023438 11.367188 L 8.9023438 0 L 0 0 z M 85.134766 9.7792969 L 85.134766 27.164062 L 80.361328 18.675781 L 85.134766 9.7792969 z M 108.0332 14.240234 L 116.20117 14.240234 L 108.13086 23.892578 L 108.13086 15.671875 C 108.13236 15.180582 108.09288 14.705207 108.0332 14.240234 z "
             transform="matrix(0.26458333,0,0,0.26458333,22.766577,46.84375)" />
        </g>
      </g>
    </g>
  </g>
</svg>
